@startuml connect4.connect4.controllers.implementation

abstract class StartController as "controllers.core.\nStartController"
abstract class PlayController as "controllers.core.\nPlayController"
abstract class SaveController as "controllers.core.\nSaveController"
abstract class ResumeController as "controllers.core.\nResumeController"
class Session as "models.Session"
class StateValue as "types.StateValue"
abstract class coreLogic as "controllers.core.Logic"

interface AcceptorController as "controllers.core.\nAcceptorController"

package implementation {

}

class implementation.Logic {
    -controllers : Map<StateValue, AceptorController> 
    +Logic()
    +getController() : AceptorController
}

interface implementation.Repository {
  public void associate(Session session);
    + save();
    +  getGamesNames() : String[];
    + exists(String name) : boolean;
    + hasSavedGames() : boolean;
    + load(String gameName);
}

class implementation.StartController {
  - repository : Repository
  + SaveController(Session, SessionDAO)
}


class implementation.PlayController{

}

class implementation.ActionController{
   
}

class implementation.UndoController{
  
}

class implementation.RedoController{
   
}

class implementation.SaveController{
  - repository : Repository
  + SaveController(Session, SessionDAO)
}

class implementation.ResumeController{
  
}


AcceptorController <|.. StartController
AcceptorController <|.. PlayController
AcceptorController <|.. SaveController
AcceptorController <|.. ResumeController


coreLogic <|-- implementation.Logic
implementation.Logic *--> Session
implementation.Logic --> Repository
implementation.Logic *--> implementation.StartController
implementation.Logic *--> implementation.PlayController
implementation.Logic *--> implementation.SaveController
implementation.Logic *--> implementation.ResumeController
implementation.Logic *--> StateValue

implementation.PlayController *--> ActionController
implementation.PlayController *--> UndoController
implementation.PlayController *--> RedoController

StartController <|-- implementation.StartController
PlayController <|-- implementation.PlayController
SaveController <|-- implementation.SaveController
ResumeController <|-- implementation.ResumeController

implementation.StartController ..> StateValue

implementation.StartController --> Session
implementation.SaveController --> Session
implementation.PlayController --> Session
implementation.ResumeController --> Session
implementation.SaveController --> Repository
implementation.StartController --> Repository
Repository --> Session

@enduml