@startuml connect4.connect4.views.graphics

class CountDownLatch as "java.util.\nconcurrent.\nCountDownLatch"
class ResumeController as "controllers.\nResumeController"
interface GameLoopView as "graphics.\ngameLoop.\nGameLoopView"

class graphics.GraphicsView {
    +setLatch(CountDownLatch)
}

class graphics.MainFrame{
     +interact()
    +setPanel(GameLoopView)
    +write()
    +isResumed(ResumeController) : boolean
}

interface View as "views.View"{
    +start(StartController)
    +play(PlayController)
    +resume(ResumeController)
    +visit(StartController)
    +visit(PlayController)
    +visit(ResumeController)
}

interface ControllerVisitor as "controllers.ControllerVisitor" {
    +visit(StartController)
    +visit(PlayController)
    +visit(SaveController)
    +visit(ResumeController)
}

GraphicsView --> CountDownLatch
class JFrame
JFrame <|-- MainFrame
GraphicsView *--> MainFrame

MainFrame ..> ResumeController


View <|.. GraphicsView
ControllerVisitor <|.. GraphicsView

class JOptionPane
MainFrame ..> JOptionPane

GraphicsView ..> GameLoopView
MainFrame --> GameLoopView

@enduml