@startuml connect4.connect4.views.graphics.commands

interface commands.Command {
    +execute()
}
abstract class commands.PlayPanelViewCommand {
    +PlayPanelViewCommand(PlayPanelView)
    #getReceiver() : PlayPanelView
}

class commands.NextTurnCommand
abstract class commands.UndoComand
abstract class commands.RedoComand
class commands.RedoMachinePlayerCommand {}
class commands.UndoMachinePlayerCommand {}
class commands.RedoUserPlayerCommand {}
class commands.UndoUserPlayerCommand {}
class commands.ExitCommand

Command <|-- PlayPanelViewCommand
PlayPanelViewCommand <|-- NextTurnCommand
PlayPanelViewCommand <|-- UndoComand
PlayPanelViewCommand <|-- RedoComand
PlayPanelViewCommand <|-- ExitCommand
UndoComand <|-- UndoMachinePlayerCommand
UndoComand <|-- UndoUserPlayerCommand
RedoComand <|-- RedoMachinePlayerCommand
RedoComand <|-- RedoUserPlayerCommand

@enduml