@startuml connect4.connect4.models

class models.Game
class models.Board
class models.Turn
class models.Line
abstract class models.Player
class models.UserPlayer
abstract class models.MachinePlayer
class models.RandomMachinePlayer
class models.MinMaxMachinePlayer
class models.State
class StateValue as "types.StateValue"
class models.Memento
class models.Registry
class models.Session

Game *-- Board
Game *-- Turn
Turn --> Board
Turn o-- Player
Player --> Board
Player <|-- UserPlayer
Player <|-- MachinePlayer
MachinePlayer <|-- RandomMachinePlayer
MachinePlayer <|-- MinMaxMachinePlayer
Board ..> Line
State *--> StateValue

enum Color as "connect4.connect4.\ntypes.Color"
class Direction as "connect4.utils.\nDirection"
class Coordinate as "connect4.utils.\nCoordinate"
class Coordinate as "connect4.utils.\nCoordinate"
class ClosedInterval as "connect4.utils.\nClosedInterval"
class PlayerType as "connect4.connect4.\ntypes.PlayerType"

Player ..> PlayerType
Turn ..> Color
Player --> Color
Board --> Coordinate
Board ..> Direction
Direction --> Coordinate
Direction ..> Coordinate
Coordinate *-- ClosedInterval
Memento ..> Board
Memento ..> Turn
Game ..> Memento
Registry --> Game
Registry --> "1..n" Memento
Session *--> Registry
Session *--> Game
Session *--> State

Game : -board: Board
Game : -turn: Turn
Game : +Game()
Game : +createMemento(): Memento
Game : +setMemento(Memento)
Game : +reset()
Game : +getColor(): Color
Game : +isWinner(): boolean
Game : +isFinished(): boolean
Game : +getActivePlayer(): Player
Game : +getPlayerType() : PlayerType
Game : +getPlayerTypeName(index) : String
Game : +getActivePlayerIndex() : int
Game : +setActivePlayer(index)
Game : +getActiveColor() : Color
Game : +getPlayerColorName(index) : String
Game : +next()
Game : +getNumberPlayers() : int
Game : +addPlayer(PlayerType)
Game : +isComplete(column: int) : boolean
Game : +getBoardColors() : String[]
Game : +setBoardColors(String[])
Game : +getLastDrop() : Coordinate
Game : +setLastDrop(Coordinate)
Game : +getPlayersSize() : int
Game : +setPlayersSize(size) 

Turn : {static} +NUMBER_PLAYERS: int
Turn : -players: Player
Turn : -activePlayerIndex: int
Turn : -board: Board
Turn : -Turn(Board)
Turn : +reset(int userPlayers)
Turn : +next()
Turn : +getActivePlayer(): Player
Turn : +setUserPlayer()
Turn : +setRandomMachinePlayer()
Turn : +setMinMaxPlayer()
Turn : -addPlayer(Player)
Turn : +setActivePlayer(activePlayer: int)
Turn : +getPlayerTypeName(index) : String
Turn : +getPlayerColorName(index) : String
Turn : +setActivePlayer(index)
Turn : +getActivePlayerIndex() : int
Turn : +isReset() : int
Turn : +setBoard(Board)
Turn : +getPlayersSize() : int
Turn : +setPlayersSize(size)

Player : -color: Color
Player : -board: Board
Player : -Player(Color, Board)
Player : +getColor(): Color
Player : +getBoard(): Board
Player : +isCompleted(column: int): boolean
Player : +dropToken(column: int)
Player : +{abstract}getType(): PlayerType

UserPlayer : +UserPlayer(Color, Board)
UserPlayer : +getType(): PlayerType

MachinePlayer : +MachinePlayer(Color, Board)
MachinePlayer : +{abstract}getColumn(): int

RandomMachinePlayer : +RandomMachinePlayer(Color, Board)
RandomMachinePlayer : +getColumn(): int
RandomMachinePlayer : +getType(): PlayerType

MinMaxMachinePlayer : {static} -MAX_STEPS
MinMaxMachinePlayer : {static} -MAX_COST
MinMaxMachinePlayer : {static} -OTHER_COST
MinMaxMachinePlayer : {static} -MIN_COST
MinMaxMachinePlayer : +MinMaxMachinePlayer(Color, Board)
MinMaxMachinePlayer : +getColumn(): int
MinMaxMachinePlayer : +getType(): PlayerType
MinMaxMachinePlayer : -getMinCost(steps: int): int
MinMaxMachinePlayer : -getMaxCost(steps: int): int
MinMaxMachinePlayer : -isEnd(steps: int): boolean
MinMaxMachinePlayer : -getCost(): int

Board : -colors[][]: Color
Board : -lastDrop: Coordinate
Board : +Board()
Board : +reset()
Board : +dropToken(int column, Color)
Board : +isComplete(int column): boolean
Board : +isComplete(): boolean
Board : +isFinished(): boolean
Board : +isWinner(): boolean
Board : +isConnect4(line): boolean
Board : +isOccupied(Coordinate, Color): boolean
Board : +isEmpty(Coordinate): boolean
Board : +isEmpty(column: int): boolean
Board : +getColor(Coordinate): Color
Board : +getLastDropColor(): Color
Board : -setColor(Coordinate, Color)
Board : +getUncompletedColumn(): int[ ]
Board : +removeTop(column: int)
Board : -getTop(column: int): Coordinate
Board : +toStringArray(): String[]
Board : +fromStringArray(String[]): Board
Board : +setColors(String[])
Board : +getLastDrop(): Coordinate
Board : +setLastDrop()


Line : {static} +LENGTH: int
Line : -origin: Coordinate
Line : -coordinates: Coordinate[ ]
Line : -oppositeDirection: Direction
Line : +Line(coordinate: Coordinate)
Line : +set(direction: Direction)
Line : +shiftOpposite()
Line : +getCoordinates(): Coordinate[ ]

State : +reset()
State : +next()
State : +getValueState()
State : +setValueState()

Memento : -boardColors: String[]
Memento : -activePlayer: int
Memento : + getBoard(): Board
Memento : +getActivePlayer(): int

Registry : - mementos: List<Memento>
Registry : - game: Game
Registry : - firstPrevious: int
Registry : +Registry(game: Game)
Registry : +reset()
Registry : +register()
Registry : +undo()
Registry : +redo()
Registry : +undoable()
Registry : +redoable()

Session : - state: State
Session : - registry: Registry
Session : - game: Game
Session : + nextState()
Session : - name: String
Session : + getActiveColor(): Color
Session : + getColor(Coordinate): Color
Session : + getNumberPlayers(): int
Session : +reset()
Session : +resetRegistry()
Session : +addPlayer(PlayerType)
Session : +getActivePlayer(): Player
Session : +getActivePlayerType(): PlayerType
Session : +isFinished(): boolean
Session : +next()
Session : +dropToken()
Session : +getColumn(): int
Session : +isWinner(): boolean
Session : +getValueState(): StateValue
Session : +undo()
Session : +undoable() : boolean
Session : +redo()
Session : +redoable() : boolean
Session : +register()
Session : +hasName() : boolean
Session : +setName()
Session : +setState()

@enduml